<?xml version="1.0" encoding="UTF-8" standalone="no"?>
<svg
   xml:space="preserve"
   version="1.1"
   style="image-rendering:optimizeQuality;shape-rendering:geometricPrecision;text-rendering:geometricPrecision"
   viewBox="0 0 2.73 2.6604725"
   x="0px"
   y="0px"
   fill-rule="evenodd"
   clip-rule="evenodd"
   id="svg3"
   sodipodi:docname="icon_heartbeat.svg"
   width="2.73"
   height="2.6604724"
   inkscape:version="1.4.2 (f4327f4, 2025-05-13)"
   xmlns:inkscape="http://www.inkscape.org/namespaces/inkscape"
   xmlns:sodipodi="http://sodipodi.sourceforge.net/DTD/sodipodi-0.dtd"
   xmlns="http://www.w3.org/2000/svg"
   xmlns:svg="http://www.w3.org/2000/svg"><sodipodi:namedview
     id="namedview3"
     pagecolor="#505050"
     bordercolor="#eeeeee"
     borderopacity="1"
     inkscape:showpageshadow="0"
     inkscape:pageopacity="0"
     inkscape:pagecheckerboard="0"
     inkscape:deskcolor="#505050"
     inkscape:zoom="168.87679"
     inkscape:cx="0.5003648"
     inkscape:cy="1.3175286"
     inkscape:window-width="1920"
     inkscape:window-height="1017"
     inkscape:window-x="-8"
     inkscape:window-y="60"
     inkscape:window-maximized="1"
     inkscape:current-layer="svg3" /><defs
     id="defs1"><style
       type="text/css"
       id="style1">
   
    .fil0 {fill:none}
    .fil1 {fill:black;fill-rule:nonzero}
   
  </style></defs><g
     id="g4"
     transform="matrix(0.98259669,0,0,0.98259669,0.02375552,-0.0110714)"
     style="stroke-width:1.01771"><g
       id="g3"
       style="stroke-width:1.01771"><path
         class="fil1"
         d="m 0.782,0.1 c 0.134,0 0.261,0.035 0.372,0.095 0.08,0.044 0.151,0.101 0.211,0.169 C 1.425,0.296 1.496,0.239 1.576,0.195 1.687,0.135 1.814,0.1 1.948,0.1 c 0.215,0 0.41,0.087 0.551,0.228 0.14,0.141 0.227,0.336 0.227,0.55 0,0.091 -0.011,0.182 -0.032,0.272 H 2.518 C 2.543,1.059 2.556,0.968 2.556,0.878 2.556,0.711 2.488,0.559 2.378,0.449 2.268,0.339 2.116,0.271 1.948,0.271 1.842,0.271 1.743,0.298 1.657,0.345 1.568,0.393 1.492,0.464 1.437,0.549 1.431,0.56 1.422,0.569 1.411,0.576 1.371,0.601 1.319,0.59 1.293,0.55 1.238,0.464 1.162,0.393 1.073,0.345 0.987,0.298 0.888,0.271 0.782,0.271 c -0.168,0 -0.32,0.068 -0.43,0.178 -0.11,0.11 -0.178,0.262 -0.178,0.429 0,0.063 0.007,0.127 0.019,0.19 H 0.02 C 0.009,1.005 0.004,0.941 0.004,0.878 0.004,0.664 0.091,0.469 0.232,0.328 0.372,0.187 0.567,0.1 0.782,0.1 Z M 2.374,1.492 H 1.819 C 1.779,1.492 1.746,1.465 1.736,1.429 L 1.642,1.151 1.447,1.818 C 1.434,1.863 1.386,1.889 1.341,1.876 1.316,1.869 1.297,1.851 1.287,1.829 L 1.039,1.273 0.984,1.367 C 0.969,1.394 0.94,1.409 0.911,1.409 H 0.236 0.234 0.124 C 0.099,1.353 0.078,1.296 0.06,1.239 H 0.236 0.24 0.862 L 0.976,1.044 v 0 C 0.985,1.029 0.998,1.017 1.015,1.009 1.058,0.99 1.108,1.009 1.127,1.052 L 1.348,1.548 1.553,0.85 C 1.559,0.822 1.579,0.798 1.608,0.789 1.653,0.774 1.701,0.797 1.716,0.842 L 1.88,1.321 H 2.459 2.495 2.642 C 2.62,1.378 2.595,1.435 2.567,1.492 H 2.495 Z M 0.41,1.58 C 0.44,1.627 0.473,1.674 0.508,1.719 0.731,2.01 1.041,2.268 1.365,2.448 1.69,2.268 1.999,2.01 2.222,1.719 2.236,1.701 2.25,1.681 2.264,1.662 H 2.469 C 2.435,1.717 2.397,1.77 2.357,1.823 2.11,2.145 1.764,2.429 1.405,2.62 1.379,2.634 1.349,2.633 1.324,2.62 0.965,2.429 0.62,2.145 0.373,1.823 0.313,1.744 0.258,1.663 0.211,1.58 Z"
         id="path1"
         style="stroke-width:1.01771" /></g></g></svg>
