<?xml version="1.0" encoding="UTF-8" standalone="no"?>
<!-- Created with Inkscape (http://www.inkscape.org/) -->

<svg
   width="297.72882mm"
   height="145.13374mm"
   viewBox="0 0 297.72882 145.13374"
   version="1.1"
   id="svg1"
   inkscape:version="1.4.2 (f4327f4, 2025-05-13)"
   sodipodi:docname="NEVADA LICENSE DEFENSE LOGO-WHITE.svg"
   inkscape:export-filename="NEVADA LICENSE DEFENSE LOGO.png"
   inkscape:export-xdpi="300"
   inkscape:export-ydpi="300"
   xmlns:inkscape="http://www.inkscape.org/namespaces/inkscape"
   xmlns:sodipodi="http://sodipodi.sourceforge.net/DTD/sodipodi-0.dtd"
   xmlns="http://www.w3.org/2000/svg"
   xmlns:svg="http://www.w3.org/2000/svg">
  <sodipodi:namedview
     id="namedview1"
     pagecolor="#505050"
     bordercolor="#eeeeee"
     borderopacity="1"
     inkscape:showpageshadow="0"
     inkscape:pageopacity="0"
     inkscape:pagecheckerboard="0"
     inkscape:deskcolor="#505050"
     inkscape:document-units="mm"
     inkscape:zoom="0.72604517"
     inkscape:cx="482.06367"
     inkscape:cy="338.13323"
     inkscape:window-width="1920"
     inkscape:window-height="1111"
     inkscape:window-x="1071"
     inkscape:window-y="1341"
     inkscape:window-maximized="1"
     inkscape:current-layer="layer1"
     showgrid="false" />
  <defs
     id="defs1" />
  <g
     inkscape:label="Layer 1"
     inkscape:groupmode="layer"
     id="layer1"
     transform="translate(0,-31.704294)">
    <text
       xml:space="preserve"
       style="font-style:normal;font-variant:normal;font-weight:normal;font-stretch:normal;font-size:56.7936px;line-height:41.2659px;font-family:'New Century Schoolbook';-inkscape-font-specification:'New Century Schoolbook, Normal';font-variant-ligatures:normal;font-variant-caps:normal;font-variant-numeric:normal;font-variant-east-asian:normal;text-align:start;text-decoration-color:#000000;writing-mode:lr-tb;direction:ltr;text-anchor:start;fill:#ffffff;fill-opacity:1;stroke-width:0.499999;stroke-linejoin:round;stroke-miterlimit:10"
       x="105.55415"
       y="69.317162"
       id="text1-0-4-6-5-0-8-0"><tspan
         sodipodi:role="line"
         id="tspan1-5-5-1-0-3-9-6"
         x="105.55415"
         y="69.317162"
         style="font-style:normal;font-variant:normal;font-weight:normal;font-stretch:normal;font-size:55.5263px;line-height:41.2659px;font-family:'Tw Cen MT';-inkscape-font-specification:'Tw Cen MT, Normal';font-variant-ligatures:normal;font-variant-caps:normal;font-variant-numeric:normal;font-variant-east-asian:normal;fill:#ffffff;fill-opacity:1;stroke-width:0.499999">NEVADA</tspan><tspan
         sodipodi:role="line"
         x="105.55415"
         y="111.3216"
         style="font-style:normal;font-variant:normal;font-weight:bold;font-stretch:normal;font-size:56.7936px;line-height:41.2659px;font-family:'Tw Cen MT';-inkscape-font-specification:'Tw Cen MT, Normal';font-variant-ligatures:normal;font-variant-caps:normal;font-variant-numeric:normal;font-variant-east-asian:normal;fill:#ffffff;fill-opacity:1;stroke-width:0.499999"
         id="tspan36-8-79-4-2-1">LICENSE</tspan><tspan
         sodipodi:role="line"
         x="105.55415"
         y="152.96497"
         style="font-style:normal;font-variant:normal;font-weight:bold;font-stretch:normal;font-size:51.8783px;line-height:41.2659px;font-family:'Tw Cen MT';-inkscape-font-specification:'Tw Cen MT, Normal';font-variant-ligatures:normal;font-variant-caps:normal;font-variant-numeric:normal;font-variant-east-asian:normal;fill:#ffffff;fill-opacity:1;stroke-width:0.499999"
         id="tspan35-9-0-1-9-8">DEFENSE</tspan></text>
    <path
       id="path15-4-1-1"
       style="fill:#ffffff;fill-opacity:1;stroke-width:0.264583;stroke-linejoin:round;stroke-miterlimit:2;-inkscape-stroke:none"
       d="M 5.2833984 33.39308 L 2.1652425 92.638042 L 91.63265 175.14929 C 92.252483 174.40297 91.153928 174.14433 91.359281 173.37523 C 91.4561 173.01256 91.868812 172.33272 91.671924 172.24972 C 90.199759 171.62897 91.288727 169.48113 91.132939 169.46333 C 88.2249 169.13197 90.279929 168.02973 90.586719 167.48825 C 90.68698 167.31136 90.301315 167.33673 90.147986 166.86865 C 90.079546 166.65973 90.176075 166.08116 90.178475 165.80929 C 90.180801 165.54664 89.733668 165.5863 89.615202 165.21656 C 89.482482 164.80232 89.670383 163.98748 89.540788 163.91328 C 89.008375 163.60841 88.776452 164.07933 88.837472 163.66006 C 89.028014 162.35079 88.797002 163.12871 88.784762 161.73202 C 88.774742 160.58862 88.857153 160.73293 88.722233 159.72852 C 88.654257 159.22254 88.256407 158.66127 88.319157 157.80461 C 88.488392 155.49382 88.136777 154.45763 88.514494 153.47206 C 88.707795 152.96763 89.754438 153.00889 90.211031 152.71758 C 90.866156 152.29963 91.074769 151.72416 91.287451 151.71816 C 92.616673 151.68279 92.59601 152.10171 93.026363 152.25042 C 93.217674 152.3165 94.044594 152.1236 95.053113 152.1078 C 95.64958 152.09845 96.436303 152.01438 96.849386 152.45248 C 97.238856 152.86552 97.243494 153.31944 97.601278 153.49273 C 99.041374 154.19012 100.50704 153.08241 100.50704 153.08241 L 100.50704 33.39308 L 5.2833984 33.39308 z M 18.30896 45.832114 L 89.79762 45.832114 L 89.79762 51.17494 L 85.472819 54.312216 L 85.049072 54.312216 L 23.058024 54.312216 L 22.634277 54.312216 L 18.30896 51.17494 L 18.30896 45.832114 z M 25.090458 55.661488 L 83.016121 55.661488 C 82.903999 55.953755 82.783258 56.204626 82.663688 56.462473 C 82.562444 56.680864 82.462303 56.90227 82.372233 57.17199 C 82.314977 57.343489 82.2639 57.544796 82.21617 57.760068 C 82.152092 58.049097 82.095697 58.373804 82.057007 58.779644 L 26.05009 58.779644 C 26.011401 58.373804 25.955006 58.049097 25.890926 57.760068 C 25.843194 57.544796 25.792113 57.343489 25.734863 57.17199 C 25.644808 56.90227 25.544653 56.680864 25.443408 56.462473 C 25.323839 56.204626 25.20258 55.953755 25.090458 55.661488 z M 26.484688 60.194545 L 26.486239 60.195061 L 26.487789 60.195061 L 81.622408 60.195061 L 81.623958 60.195061 C 82.632417 60.19746 85.810655 62.545613 87.1337 64.536915 C 87.14034 64.546865 87.146737 64.556771 87.153337 64.566371 C 87.347178 64.861757 87.526311 65.166875 87.689738 65.48001 C 88.016593 66.106399 88.281331 66.764962 88.481421 67.442681 C 88.981645 69.137039 89.075661 70.950876 88.709314 72.679054 C 88.123149 75.444017 86.353496 77.948196 83.915291 79.37787 C 82.387407 80.273739 80.61112 80.747746 78.841699 80.716806 C 78.588925 80.712376 78.336394 80.697674 78.084639 80.672364 C 76.070587 80.470163 74.125194 79.587626 72.67205 78.17846 C 72.365883 77.881516 72.081956 77.561605 71.823006 77.222446 C 71.046081 76.205328 70.494018 75.016373 70.243774 73.761675 C 70.076944 72.92517 70.046345 72.061123 70.15024 71.214544 C 70.202181 70.791195 70.287814 70.372535 70.407072 69.963457 C 70.526317 69.554379 70.679097 69.154815 70.865442 68.771282 C 71.036965 68.418211 71.236585 68.079041 71.461788 67.757391 C 72.137396 66.792202 73.040912 65.986398 74.089535 65.450555 C 74.788614 65.093407 75.551213 64.858987 76.329708 64.758607 C 77.108191 64.658106 77.902618 64.691413 78.667033 64.870228 C 78.829597 64.908248 78.990605 64.953617 79.149691 65.004587 C 79.308597 65.055557 79.465573 65.112713 79.619946 65.176153 C 79.774306 65.239595 79.926456 65.308859 80.075216 65.384409 C 80.140841 65.417746 80.203072 65.456792 80.267452 65.492412 C 80.349136 65.537621 80.432352 65.580028 80.511882 65.628838 C 80.65401 65.716146 80.792427 65.809311 80.926843 65.907891 C 81.061248 66.006352 81.191387 66.110245 81.317 66.2195 C 81.442614 66.328875 81.563496 66.443975 81.679252 66.563665 C 81.795103 66.683474 81.906113 66.808039 82.011015 66.937802 C 82.430503 67.456975 82.754459 68.053741 82.963411 68.687566 C 83.058347 68.975515 83.126217 69.27201 83.171667 69.571233 C 83.176187 69.601223 83.183587 69.63105 83.187687 69.66115 C 83.189587 69.6753 83.190021 69.689255 83.191821 69.703525 C 83.231721 70.019778 83.244307 70.339217 83.224377 70.657989 C 83.210617 70.877339 83.182518 71.096339 83.139628 71.312212 C 83.096729 71.528084 83.038849 71.741029 82.967029 71.948866 C 82.823402 72.36454 82.622605 72.759651 82.364482 73.11572 C 82.235414 73.293815 82.091872 73.46195 81.936084 73.617498 C 81.468781 74.084142 80.890425 74.438956 80.2566 74.622088 C 79.268589 74.907519 78.153539 74.753938 77.302775 74.17612 C 76.877459 73.887331 76.519666 73.498043 76.272864 73.04699 C 76.232549 72.973233 76.195503 72.898311 76.161243 72.821681 C 76.126983 72.744927 76.095202 72.666737 76.067192 72.587587 C 75.951811 72.26138 75.890208 71.916193 75.888908 71.570078 C 75.887385 71.182347 75.961883 70.793188 76.120418 70.439397 C 76.278952 70.085487 76.522708 69.767915 76.833553 69.536093 C 77.144409 69.30439 77.522686 69.159875 77.909973 69.141285 C 78.297271 69.122696 78.691864 69.232661 79.005514 69.460646 C 79.113462 69.5392 79.211401 69.630741 79.314539 69.715411 C 79.417678 69.8002 79.527547 69.878557 79.651986 69.926767 C 79.657986 69.929167 79.663972 69.931602 79.670072 69.934002 C 79.704152 69.946232 79.739466 69.955224 79.774976 69.962424 C 79.778526 69.963624 79.781711 69.965008 79.785311 69.965008 C 79.804821 69.968608 79.824492 69.971042 79.844222 69.972242 C 79.864052 69.974642 79.884257 69.974826 79.904167 69.974826 C 79.968617 69.973506 80.033306 69.960659 80.092786 69.936069 C 80.112646 69.927919 80.131626 69.91792 80.150146 69.90713 C 80.224222 69.863356 80.285908 69.796868 80.319128 69.717478 C 80.352388 69.638085 80.355913 69.546043 80.324813 69.465813 C 80.304383 69.413048 80.270146 69.367436 80.234896 69.323186 C 80.165145 69.235757 80.089617 69.153246 80.009587 69.075656 C 79.929522 68.998062 79.844775 68.925379 79.755855 68.858099 C 79.489145 68.656258 79.185896 68.50178 78.86547 68.401279 C 78.545044 68.300778 78.207606 68.254164 77.872249 68.267954 C 77.089832 68.300215 76.332747 68.65131 75.775736 69.202264 C 75.696176 69.281057 75.6208 69.36372 75.54991 69.45031 C 75.118681 69.976799 74.852794 70.633072 74.774764 71.309112 C 74.71625 71.816172 74.761897 72.333386 74.897237 72.825815 C 74.942379 72.989998 74.997565 73.151523 75.062085 73.30899 C 75.346676 74.003379 75.816861 74.615623 76.402055 75.085625 C 76.519045 75.179649 76.640784 75.267542 76.766374 75.349692 C 76.891952 75.431844 77.021427 75.508265 77.154464 75.577585 C 77.287502 75.646904 77.42389 75.70964 77.563224 75.76517 C 77.702569 75.820693 77.844582 75.869001 77.988521 75.910381 C 78.996632 76.20025 80.101813 76.14625 81.081873 75.767754 C 81.449996 75.625518 81.798442 75.438208 82.121602 75.2143 C 82.444823 74.990393 82.742768 74.729141 83.010437 74.439153 C 83.144278 74.294279 83.270217 74.14231 83.388192 73.983884 C 83.624128 73.666911 83.82723 73.324649 83.991772 72.965341 C 84.074044 72.785807 84.14689 72.602196 84.20933 72.414987 C 84.708834 70.917313 84.570719 69.235776 83.922526 67.796148 C 83.655696 67.203459 83.30538 66.650154 82.889514 66.15077 C 82.681581 65.901078 82.457209 65.664866 82.218754 65.443837 C 81.980299 65.222688 81.727724 65.017138 81.463245 64.82837 C 80.260021 63.969318 78.806805 63.478106 77.331714 63.393316 C 76.446602 63.342466 75.553505 63.437819 74.702417 63.687871 C 73.567684 64.021394 72.519305 64.62644 71.645239 65.422649 C 71.426704 65.621731 71.218948 65.832506 71.023572 66.054135 C 70.43743 66.719381 69.961746 67.481009 69.633476 68.305161 L 69.255204 68.305161 L 38.850342 68.305161 L 38.47207 68.305161 C 37.924965 66.931614 36.968212 65.731843 35.773527 64.862477 C 35.056736 64.340906 34.254145 63.938043 33.403129 63.687871 C 33.11967 63.604569 32.831548 63.538198 32.540649 63.488917 L 32.540133 63.488917 C 30.502191 63.143761 28.326908 63.625601 26.642301 64.82837 C 25.584383 65.583683 24.717209 66.61089 24.183537 67.796148 C 24.021489 68.156055 23.8912 68.530893 23.79493 68.914426 C 23.506141 70.064906 23.52211 71.291732 23.896733 72.414987 C 24.08405 72.976615 24.363479 73.508365 24.717354 73.983884 C 24.835316 74.14231 24.961785 74.294279 25.095626 74.439153 C 25.229419 74.584147 25.371044 74.722128 25.519373 74.851531 C 25.667701 74.980934 25.822387 75.102407 25.983944 75.2143 C 26.145367 75.32623 26.31344 75.429358 26.486755 75.521774 L 26.487272 75.521774 C 26.660587 75.614166 26.83928 75.696673 27.023157 75.767754 L 27.023674 75.767754 C 28.003735 76.14625 29.108409 76.20025 30.116508 75.910381 C 30.211192 75.883161 30.303814 75.84812 30.396594 75.81478 C 30.444866 75.79739 30.494135 75.78424 30.541805 75.76517 C 31.099451 75.542821 31.611172 75.206448 32.040422 74.786936 C 32.147734 74.681998 32.249916 74.572012 32.346346 74.45724 C 32.635639 74.112683 32.87374 73.725623 33.044495 73.30899 C 33.109016 73.151523 33.163706 72.989998 33.208826 72.825815 C 33.344174 72.333386 33.389809 71.816172 33.331299 71.309112 C 33.253273 70.633072 32.987898 69.976799 32.556669 69.45031 C 32.485767 69.363721 32.409896 69.281054 32.330326 69.202264 C 32.250801 69.123591 32.167392 69.049181 32.080212 68.979021 C 31.993036 68.908863 31.902721 68.842537 31.808911 68.781617 C 31.715102 68.720573 31.61791 68.664759 31.51849 68.613669 C 31.319588 68.511489 31.110545 68.429707 30.895272 68.371307 C 30.679928 68.312778 30.458419 68.277554 30.234847 68.267954 C 29.899501 68.254162 29.562052 68.300779 29.241626 68.401279 C 28.921199 68.50178 28.617963 68.656258 28.351241 68.858099 C 28.262337 68.925379 28.17758 68.998066 28.09751 69.075656 C 28.017493 69.15325 27.941951 69.235756 27.872201 69.323186 C 27.836901 69.367441 27.802744 69.413043 27.782284 69.465813 C 27.751214 69.546046 27.755265 69.638088 27.788485 69.717478 C 27.821705 69.796871 27.88287 69.86336 27.95695 69.90713 C 27.97547 69.91804 27.994491 69.927669 28.014311 69.936069 C 28.073796 69.960659 28.13848 69.973626 28.20293 69.974826 C 28.247126 69.975546 28.291315 69.970307 28.334705 69.961907 C 28.369425 69.955077 28.403674 69.945992 28.437024 69.934002 C 28.443074 69.931602 28.449111 69.929167 28.455111 69.926767 C 28.57955 69.878556 28.689936 69.799684 28.793075 69.714894 C 28.896226 69.630224 28.993635 69.539196 29.101583 69.460646 C 29.415233 69.232665 29.809824 69.122695 30.197123 69.141285 C 30.58441 69.159874 30.962687 69.303874 31.273543 69.535577 C 31.351257 69.593502 31.425162 69.657349 31.494202 69.725229 C 31.632312 69.860988 31.752286 70.014793 31.852319 70.181015 C 31.902329 70.264246 31.947038 70.350371 31.986678 70.438881 C 32.145215 70.792672 32.219788 71.182348 32.218188 71.570078 C 32.217688 71.698642 32.20916 71.827065 32.19235 71.95455 C 32.17555 72.081914 32.150376 72.207938 32.117936 72.332305 C 32.085517 72.456551 32.045427 72.579242 31.998047 72.698691 C 31.950663 72.818021 31.895903 72.934257 31.834233 73.04699 C 31.779797 73.146411 31.720172 73.242801 31.655432 73.335861 C 31.426607 73.664706 31.135901 73.951013 30.804321 74.17612 C 29.953556 74.753938 28.839012 74.907519 27.851013 74.622088 C 27.53416 74.530582 27.230948 74.39567 26.948743 74.22573 C 26.854718 74.169124 26.762964 74.108625 26.673824 74.044345 C 26.495466 73.915901 26.327798 73.772409 26.172046 73.616981 C 26.016211 73.461313 25.872236 73.293298 25.743132 73.115203 C 25.614076 72.937109 25.499502 72.749759 25.398966 72.554514 C 25.197845 72.164026 25.054252 71.74368 24.968502 71.311696 C 24.925602 71.095824 24.896976 70.877339 24.883236 70.657989 C 24.862376 70.324946 24.875616 69.990679 24.919926 69.660634 C 24.923956 69.630524 24.931346 69.600697 24.935946 69.570717 C 24.981399 69.271494 25.049252 68.975515 25.144202 68.687566 C 25.353142 68.053741 25.67711 67.456459 26.096598 66.937286 C 26.211814 66.794811 26.334131 66.65849 26.462467 66.528008 C 26.590767 66.397645 26.725539 66.273191 26.865544 66.155421 C 27.145506 65.919881 27.447432 65.709762 27.765747 65.528069 C 28.027145 65.378997 28.299328 65.249041 28.579651 65.138946 C 28.860021 65.028851 29.148567 64.938311 29.441614 64.869711 C 30.206029 64.690897 31.000444 64.65759 31.778939 64.75809 C 31.973572 64.783151 32.167403 64.816603 32.359265 64.858343 C 32.93478 64.983309 33.494349 65.182236 34.018595 65.450038 C 35.416752 66.164455 36.556622 67.358481 37.242688 68.770765 C 37.335861 68.962532 37.421043 69.158451 37.497453 69.357293 C 37.72671 69.95394 37.880487 70.579002 37.958407 71.214027 C 38.062288 72.060606 38.031188 72.924653 37.864355 73.761158 C 37.614099 75.015856 37.062564 76.204811 36.28564 77.221929 C 36.026689 77.561089 35.742247 77.880998 35.43608 78.177943 C 33.982936 79.587109 32.037542 80.469648 30.02349 80.671848 C 28.009426 80.874048 25.938994 80.40067 24.192839 79.376836 C 22.973737 78.662059 21.921916 77.679307 21.101554 76.528948 C 20.691372 75.953768 20.339431 75.336755 20.05304 74.690817 C 19.766638 74.044879 19.545874 73.369688 19.399333 72.678537 C 19.252793 71.987266 19.179924 71.282399 19.177124 70.576857 C 19.168753 68.460109 19.791745 66.338045 20.954793 64.565854 C 20.961343 64.555904 20.968247 64.545482 20.974947 64.535882 C 22.29798 62.544581 25.476241 60.196945 26.484688 60.194545 z M 39.062215 69.813079 L 39.12216 69.813079 L 68.984937 69.813079 L 69.044881 69.813079 C 69.044881 69.813079 67.485486 73.710516 70.003996 76.828671 L 38.103101 76.828671 C 40.621611 73.710516 39.062215 69.813079 39.062215 69.813079 z M 37.530526 78.503505 L 42.618587 78.503505 L 42.618587 119.37853 L 37.530526 114.71421 L 37.530526 78.503505 z M 46.849854 78.503505 L 51.937915 78.503505 L 51.937915 128.02865 L 46.849854 123.36433 L 46.849854 78.503505 z M 56.169181 78.503505 L 61.257243 78.503505 L 61.257243 136.5935 L 56.169181 131.92918 L 56.169181 78.503505 z M 65.488509 78.503505 L 70.576571 78.503505 L 70.576571 144.98885 L 65.488509 140.32505 L 65.488509 78.503505 z " />
  </g>
</svg>
